<svg xmlns="http://www.w3.org/2000/svg" viewBox="0 0 16 16" shape-rendering="crispEdges">
  <!-- handle -->
  <rect x="3" y="10" width="1" height="1" fill="#6b4226"/>
  <rect x="4" y="9" width="1" height="1" fill="#6b4226"/>
  <rect x="5" y="8" width="1" height="1" fill="#8b5a2b"/>
  <rect x="6" y="7" width="1" height="1" fill="#8b5a2b"/>
  <rect x="7" y="6" width="1" height="1" fill="#8b5a2b"/>
  <rect x="8" y="5" width="1" height="1" fill="#a0703c"/>
  <rect x="2" y="11" width="1" height="1" fill="#5a3420"/>
  <rect x="1" y="12" width="1" height="1" fill="#5a3420"/>
  <rect x="2" y="12" width="1" height="1" fill="#6b4226"/>
  <!-- blade -->
  <rect x="9" y="3" width="1" height="1" fill="#a0a0a0"/>
  <rect x="10" y="2" width="1" height="1" fill="#a0a0a0"/>
  <rect x="10" y="3" width="1" height="1" fill="#c0c0c0"/>
  <rect x="10" y="4" width="1" height="1" fill="#c0c0c0"/>
  <rect x="9" y="4" width="1" height="1" fill="#a0a0a0"/>
  <rect x="11" y="1" width="1" height="1" fill="#a0a0a0"/>
  <rect x="11" y="2" width="1" height="1" fill="#d8d8d8"/>
  <rect x="11" y="3" width="1" height="1" fill="#c0c0c0"/>
  <rect x="12" y="1" width="1" height="1" fill="#c0c0c0"/>
  <rect x="12" y="2" width="1" height="1" fill="#d8d8d8"/>
  <rect x="13" y="1" width="1" height="1" fill="#d8d8d8"/>
  <!-- blade edge highlight -->
  <rect x="13" y="2" width="1" height="1" fill="#e8e8e8"/>
  <rect x="12" y="3" width="1" height="1" fill="#888888"/>
</svg>
