<svg xmlns="http://www.w3.org/2000/svg" viewBox="0 0 16 16" shape-rendering="crispEdges">
  <!-- face background -->
  <rect x="2" y="2" width="12" height="12" fill="#5da832"/>
  <rect x="3" y="1" width="10" height="1" fill="#5da832"/>
  <rect x="3" y="14" width="10" height="1" fill="#5da832"/>
  <rect x="1" y="3" width="1" height="10" fill="#5da832"/>
  <rect x="14" y="3" width="1" height="10" fill="#5da832"/>
  <!-- darker patches -->
  <rect x="2" y="2" width="2" height="2" fill="#4a8828"/>
  <rect x="12" y="2" width="2" height="2" fill="#4a8828"/>
  <rect x="2" y="12" width="2" height="2" fill="#4a8828"/>
  <rect x="12" y="12" width="2" height="2" fill="#4a8828"/>
  <!-- eyes -->
  <rect x="4" y="5" width="2" height="2" fill="#1a1a1a"/>
  <rect x="10" y="5" width="2" height="2" fill="#1a1a1a"/>
  <rect x="4" y="7" width="1" height="1" fill="#1a1a1a"/>
  <rect x="11" y="7" width="1" height="1" fill="#1a1a1a"/>
  <!-- mouth -->
  <rect x="6" y="8" width="1" height="1" fill="#1a1a1a"/>
  <rect x="9" y="8" width="1" height="1" fill="#1a1a1a"/>
  <rect x="5" y="9" width="2" height="1" fill="#1a1a1a"/>
  <rect x="9" y="9" width="2" height="1" fill="#1a1a1a"/>
  <rect x="6" y="10" width="1" height="2" fill="#1a1a1a"/>
  <rect x="7" y="9" width="2" height="1" fill="#1a1a1a"/>
  <rect x="9" y="10" width="1" height="2" fill="#1a1a1a"/>
  <rect x="7" y="11" width="2" height="1" fill="#1a1a1a"/>
</svg>
