<svg xmlns="http://www.w3.org/2000/svg" viewBox="0 0 16 16" shape-rendering="crispEdges">
  <!-- stem -->
  <rect x="7" y="8" width="1" height="1" fill="#2d8a2d"/>
  <rect x="7" y="9" width="1" height="1" fill="#2d8a2d"/>
  <rect x="7" y="10" width="1" height="1" fill="#2d8a2d"/>
  <rect x="7" y="11" width="1" height="1" fill="#2d8a2d"/>
  <rect x="7" y="12" width="1" height="1" fill="#3ba55d"/>
  <rect x="7" y="13" width="1" height="1" fill="#3ba55d"/>
  <rect x="7" y="14" width="1" height="1" fill="#3ba55d"/>
  <!-- leaf left -->
  <rect x="5" y="10" width="1" height="1" fill="#3ba55d"/>
  <rect x="6" y="9" width="1" height="1" fill="#3ba55d"/>
  <!-- leaf right -->
  <rect x="9" y="10" width="1" height="1" fill="#3ba55d"/>
  <rect x="8" y="9" width="1" height="1" fill="#3ba55d"/>
  <!-- petals -->
  <rect x="7" y="4" width="1" height="1" fill="#e03030"/>
  <rect x="6" y="5" width="1" height="1" fill="#e03030"/>
  <rect x="7" y="5" width="1" height="1" fill="#ff5555"/>
  <rect x="8" y="5" width="1" height="1" fill="#e03030"/>
  <rect x="5" y="6" width="1" height="1" fill="#e03030"/>
  <rect x="6" y="6" width="1" height="1" fill="#ff5555"/>
  <rect x="7" y="6" width="1" height="1" fill="#ffcc00"/>
  <rect x="8" y="6" width="1" height="1" fill="#ff5555"/>
  <rect x="9" y="6" width="1" height="1" fill="#e03030"/>
  <rect x="6" y="7" width="1" height="1" fill="#e03030"/>
  <rect x="7" y="7" width="1" height="1" fill="#ff5555"/>
  <rect x="8" y="7" width="1" height="1" fill="#e03030"/>
</svg>
