<svg xmlns="http://www.w3.org/2000/svg" viewBox="0 0 16 16" shape-rendering="crispEdges">
  <!-- grass top -->
  <rect x="1" y="1" width="14" height="1" fill="#5da832"/>
  <rect x="1" y="2" width="14" height="1" fill="#6cc03a"/>
  <rect x="1" y="3" width="14" height="1" fill="#5da832"/>
  <rect x="2" y="4" width="2" height="1" fill="#6cc03a"/>
  <rect x="6" y="4" width="3" height="1" fill="#6cc03a"/>
  <rect x="11" y="4" width="2" height="1" fill="#6cc03a"/>
  <!-- dirt body -->
  <rect x="1" y="4" width="1" height="1" fill="#8b6a3e"/>
  <rect x="4" y="4" width="2" height="1" fill="#8b6a3e"/>
  <rect x="9" y="4" width="2" height="1" fill="#8b6a3e"/>
  <rect x="13" y="4" width="2" height="1" fill="#8b6a3e"/>
  <rect x="1" y="5" width="14" height="1" fill="#8b6a3e"/>
  <rect x="1" y="6" width="14" height="1" fill="#7a5c32"/>
  <rect x="1" y="7" width="14" height="1" fill="#8b6a3e"/>
  <rect x="1" y="8" width="14" height="1" fill="#6e5028"/>
  <rect x="1" y="9" width="14" height="1" fill="#8b6a3e"/>
  <rect x="1" y="10" width="14" height="1" fill="#7a5c32"/>
  <rect x="1" y="11" width="14" height="1" fill="#8b6a3e"/>
  <rect x="1" y="12" width="14" height="1" fill="#6e5028"/>
  <rect x="1" y="13" width="14" height="1" fill="#7a5c32"/>
  <rect x="1" y="14" width="14" height="1" fill="#8b6a3e"/>
  <!-- dirt specks -->
  <rect x="3" y="7" width="1" height="1" fill="#6e5028"/>
  <rect x="8" y="6" width="1" height="1" fill="#6e5028"/>
  <rect x="12" y="8" width="1" height="1" fill="#7a5c32"/>
  <rect x="5" y="10" width="1" height="1" fill="#6e5028"/>
  <rect x="10" y="12" width="1" height="1" fill="#6e5028"/>
</svg>
