<svg xmlns="http://www.w3.org/2000/svg" viewBox="0 0 16 16" shape-rendering="crispEdges">
  <rect x="4" y="1" width="1" height="1" fill="#2d2d2d"/>
  <rect x="5" y="1" width="1" height="1" fill="#bbbbbb"/>
  <rect x="6" y="1" width="1" height="1" fill="#bbbbbb"/>
  <rect x="7" y="1" width="1" height="1" fill="#bbbbbb"/>
  <rect x="3" y="2" width="1" height="1" fill="#2d2d2d"/>
  <rect x="4" y="2" width="1" height="1" fill="#bbbbbb"/>
  <rect x="5" y="2" width="1" height="1" fill="#8b8b8b"/>
  <rect x="6" y="2" width="1" height="1" fill="#8b8b8b"/>
  <rect x="7" y="2" width="1" height="1" fill="#bbbbbb"/>
  <rect x="3" y="3" width="1" height="1" fill="#bbbbbb"/>
  <rect x="4" y="3" width="1" height="1" fill="#8b8b8b"/>
  <rect x="5" y="3" width="1" height="1" fill="#8b8b8b"/>
  <rect x="6" y="3" width="1" height="1" fill="#2d2d2d"/>
  <rect x="4" y="4" width="1" height="1" fill="#2d2d2d"/>
  <rect x="5" y="4" width="1" height="1" fill="#8b8b8b"/>
  <rect x="5" y="5" width="1" height="1" fill="#2d2d2d"/>
  <rect x="6" y="5" width="1" height="1" fill="#8b5e3c"/>
  <rect x="6" y="6" width="1" height="1" fill="#8b5e3c"/>
  <rect x="7" y="6" width="1" height="1" fill="#2d2d2d"/>
  <rect x="7" y="7" width="1" height="1" fill="#8b5e3c"/>
  <rect x="8" y="7" width="1" height="1" fill="#2d2d2d"/>
  <rect x="8" y="8" width="1" height="1" fill="#8b5e3c"/>
  <rect x="9" y="8" width="1" height="1" fill="#2d2d2d"/>
  <rect x="9" y="9" width="1" height="1" fill="#8b5e3c"/>
  <rect x="10" y="9" width="1" height="1" fill="#2d2d2d"/>
  <rect x="10" y="10" width="1" height="1" fill="#6b4226"/>
  <rect x="11" y="10" width="1" height="1" fill="#2d2d2d"/>
  <rect x="11" y="11" width="1" height="1" fill="#2d2d2d"/>
</svg>
