<svg xmlns="http://www.w3.org/2000/svg" viewBox="0 0 16 16" shape-rendering="crispEdges">
  <!-- bottle body -->
  <rect x="5" y="6" width="6" height="1" fill="#d8b4e2"/>
  <rect x="4" y="7" width="8" height="1" fill="#c89dd8"/>
  <rect x="4" y="8" width="8" height="1" fill="#b888cc"/>
  <rect x="4" y="9" width="8" height="1" fill="#c89dd8"/>
  <rect x="4" y="10" width="8" height="1" fill="#a870bb"/>
  <rect x="4" y="11" width="8" height="1" fill="#b888cc"/>
  <rect x="5" y="12" width="6" height="1" fill="#c89dd8"/>
  <rect x="5" y="13" width="6" height="1" fill="#9960aa"/>
  <!-- highlight -->
  <rect x="5" y="7" width="1" height="2" fill="#e0c8ee"/>
  <rect x="5" y="9" width="1" height="1" fill="#d8b4e2"/>
  <!-- neck -->
  <rect x="7" y="4" width="2" height="1" fill="#a0a0a0"/>
  <rect x="7" y="5" width="2" height="1" fill="#c89dd8"/>
  <!-- cork -->
  <rect x="7" y="3" width="2" height="1" fill="#c8aa3f"/>
  <rect x="7" y="2" width="2" height="1" fill="#dabb55"/>
  <!-- liquid glow -->
  <rect x="6" y="9" width="4" height="2" fill="#9960aa"/>
</svg>
