<svg xmlns="http://www.w3.org/2000/svg" viewBox="0 0 16 16" shape-rendering="crispEdges">
  <!-- star -->
  <rect x="7" y="1" width="2" height="1" fill="#f5df4d"/>
  <rect x="7" y="2" width="2" height="1" fill="#f5df4d"/>
  <rect x="6" y="3" width="4" height="1" fill="#f5df4d"/>
  <rect x="6" y="4" width="4" height="1" fill="#ffe066"/>
  <rect x="1" y="5" width="14" height="1" fill="#f5df4d"/>
  <rect x="2" y="6" width="12" height="1" fill="#f5df4d"/>
  <rect x="3" y="6" width="10" height="1" fill="#ffe066"/>
  <rect x="4" y="7" width="8" height="1" fill="#f5df4d"/>
  <rect x="5" y="8" width="6" height="1" fill="#f5df4d"/>
  <rect x="4" y="9" width="8" height="1" fill="#f5df4d"/>
  <rect x="3" y="10" width="4" height="1" fill="#dabb55"/>
  <rect x="9" y="10" width="4" height="1" fill="#dabb55"/>
  <rect x="2" y="11" width="3" height="1" fill="#dabb55"/>
  <rect x="11" y="11" width="3" height="1" fill="#dabb55"/>
  <rect x="1" y="12" width="3" height="1" fill="#c8aa3f"/>
  <rect x="12" y="12" width="3" height="1" fill="#c8aa3f"/>
  <rect x="1" y="13" width="2" height="1" fill="#c8aa3f"/>
  <rect x="13" y="13" width="2" height="1" fill="#c8aa3f"/>
</svg>
