<svg xmlns="http://www.w3.org/2000/svg" viewBox="0 0 16 16" shape-rendering="crispEdges">
  <rect x="14" y="1" width="1" height="1" fill="#2d2d2d"/>
  <rect x="15" y="1" width="1" height="1" fill="#9cffff"/>
  <rect x="13" y="2" width="1" height="1" fill="#2d2d2d"/>
  <rect x="14" y="2" width="1" height="1" fill="#5decec"/>
  <rect x="15" y="2" width="1" height="1" fill="#9cffff"/>
  <rect x="12" y="3" width="1" height="1" fill="#2d2d2d"/>
  <rect x="13" y="3" width="1" height="1" fill="#5decec"/>
  <rect x="14" y="3" width="1" height="1" fill="#5decec"/>
  <rect x="15" y="3" width="1" height="1" fill="#9cffff"/>
  <rect x="11" y="4" width="1" height="1" fill="#2d2d2d"/>
  <rect x="12" y="4" width="1" height="1" fill="#5decec"/>
  <rect x="13" y="4" width="1" height="1" fill="#5decec"/>
  <rect x="10" y="5" width="1" height="1" fill="#2d2d2d"/>
  <rect x="11" y="5" width="1" height="1" fill="#5decec"/>
  <rect x="12" y="5" width="1" height="1" fill="#5decec"/>
  <rect x="9" y="6" width="1" height="1" fill="#2d2d2d"/>
  <rect x="10" y="6" width="1" height="1" fill="#5decec"/>
  <rect x="11" y="6" width="1" height="1" fill="#5decec"/>
  <rect x="8" y="7" width="1" height="1" fill="#2d2d2d"/>
  <rect x="9" y="7" width="1" height="1" fill="#5decec"/>
  <rect x="10" y="7" width="1" height="1" fill="#5decec"/>
  <rect x="7" y="8" width="1" height="1" fill="#2d2d2d"/>
  <rect x="8" y="8" width="1" height="1" fill="#5decec"/>
  <rect x="9" y="8" width="1" height="1" fill="#5decec"/>
  <rect x="5" y="9" width="1" height="1" fill="#2d2d2d"/>
  <rect x="7" y="9" width="1" height="1" fill="#5decec"/>
  <rect x="8" y="9" width="1" height="1" fill="#5decec"/>
  <rect x="6" y="10" width="1" height="1" fill="#2d2d2d"/>
  <rect x="7" y="10" width="1" height="1" fill="#c8aa3f"/>
  <rect x="5" y="11" width="1" height="1" fill="#2d2d2d"/>
  <rect x="6" y="11" width="1" height="1" fill="#c8aa3f"/>
  <rect x="4" y="12" width="1" height="1" fill="#2d2d2d"/>
  <rect x="5" y="12" width="1" height="1" fill="#6b4226"/>
  <rect x="3" y="13" width="1" height="1" fill="#2d2d2d"/>
  <rect x="4" y="13" width="1" height="1" fill="#6b4226"/>
  <rect x="2" y="14" width="1" height="1" fill="#2d2d2d"/>
  <rect x="3" y="14" width="1" height="1" fill="#2d2d2d"/>
</svg>
